{"accessors":[{"bufferView":0,"componentType":5126,"count":1950,"max":[0.5,1.0,0.5],"min":[-0.5,-1.0,-0.5],"normalized":false,"type":"VEC3"},{"bufferView":1,"componentType":5126,"count":1950,"max":[1.0,0.0,1.0,1.0],"min":[-1.0,-2.157951530534774e-05,-1.0,1.0],"normalized":false,"type":"VEC4"},{"bufferView":2,"componentType":5126,"count":1950,"max":[1.0,1.0,1.0],"min":[-1.0,-1.0,-1.0],"normalized":false,"type":"VEC3"},{"bufferView":3,"componentType":5126,"count":1950,"max":[1.0,1.0],"min":[0.0,0.0],"normalized":false,"type":"VEC2"},{"bufferView":4,"componentType":5123,"count":10368,"max":[1949],"min":[0],"normalized":false,"type":"SCALAR"},{"bufferView":5,"componentType":5126,"count":36,"max":[0.130218505859375,0.13092041015625,0.3662109375],"min":[-0.130218505859375,-0.13092041015625,-0.3662109375],"normalized":false,"type":"VEC3"},{"bufferView":6,"componentType":5126,"count":36,"max":[0.0,0.0,7.630093023180962e-05,-1.0],"min":[-1.0,-1.0,-1.0,-1.0],"normalized":false,"type":"VEC4"},{"bufferView":7,"componentType":5126,"count":36,"max":[1.0,1.0,1.0],"min":[-1.0,-1.0,-1.0],"normalized":false,"type":"VEC3"},{"bufferView":8,"componentType":5126,"count":36,"max":[1.0,1.0],"min":[0.0,0.0],"normalized":false,"type":"VEC2"},{"bufferView":9,"componentType":5121,"count":36,"max":[35],"min":[0],"normalized":false,"type":"SCALAR"}],"asset":{"generator":"Godot Engine v4.7.2.stable.official@ed1daf0bf001b61586d9930840f2f1394092c079","version":"2.0"},"bufferViews":[{"buffer":0,"byteLength":23400,"byteStride":12,"target":34962},{"buffer":0,"byteLength":31200,"byteOffset":23400,"byteStride":16,"target":34962},{"buffer":0,"byteLength":23400,"byteOffset":54600,"byteStride":12,"target":34962},{"buffer":0,"byteLength":15600,"byteOffset":78000,"byteStride":8,"target":34962},{"buffer":0,"byteLength":20736,"byteOffset":93600,"target":34963},{"buffer":0,"byteLength":432,"byteOffset":114336,"byteStride":12,"target":34962},{"buffer":0,"byteLength":576,"byteOffset":114768,"byteStride":16,"target":34962},{"buffer":0,"byteLength":432,"byteOffset":115344,"byteStride":12,"target":34962},{"buffer":0,"byteLength":288,"byteOffset":115776,"byteStride":8,"target":34962},{"buffer":0,"byteLength":36,"byteOffset":116064,"target":34963}],"buffers":[{"byteLength":116100,"uri":"player0.bin"}],"cameras":[{"perspective":{"yfov":1.3089969158172607,"zfar":4000.0,"znear":0.05000000074505806},"type":"perspective"}],"extensions":{"OMI_physics_shape":{"shapes":[{"capsule":{"height":2.0,"radius":0.5},"type":"capsule"}]}},"extensionsUsed":["GODOT_single_root","OMI_physics_body","OMI_physics_shape"],"materials":[{"pbrMetallicRoughness":{"baseColorFactor":[0.0,0.0,0.0,1.0],"metallicFactor":0.0,"roughnessFactor":1.0}}],"meshes":[{"primitives":[{"attributes":{"NORMAL":2,"POSITION":0,"TANGENT":1,"TEXCOORD_0":3},"indices":4,"mode":4}]},{"name":"Head2","primitives":[{"attributes":{"NORMAL":7,"POSITION":5,"TANGENT":6,"TEXCOORD_0":8},"indices":9,"material":0,"mode":4}]}],"nodes":[{"children":[1,3],"extensions":{"OMI_physics_body":{"motion":{"type":"kinematic"}}},"name":"Player"},{"children":[2],"extensions":{"OMI_physics_body":{"collider":{"shape":0}}},"name":"CollisionShape3D","translation":[0.0,1.0,0.0]},{"mesh":0,"name":"MeshInstance3D"},{"children":[4],"mesh":1,"name":"Head2","rotation":[0.0,0.7071067690849304,0.0,0.7071067690849304],"translation":[0.0,1.5,-0.39399999380111694]},{"camera":0,"children":[5,6,7],"name":"Camera3D","rotation":[0.0,-0.7071067690849304,0.0,0.7071067690849304],"translation":[-0.32499998807907104,0.0,0.0]},{"name":"Hand","translation":[1.2744742631912231,-0.6343584060668945,-1.394281029701233]},{"name":"RayCast3D","translation":[0.0,0.0,-0.26415443420410156]},{"children":[8],"name":"CanvasLayer"},{"children":[9,10],"name":"Control"},{"name":"Panel"},{"name":"Panel2"}],"scene":0,"scenes":[{"nodes":[0]}]}